<?xml version="1.0" standalone="no"?>
<!DOCTYPE svg PUBLIC "-//W3C//DTD SVG 20010904//EN"
 "http://www.w3.org/TR/2001/REC-SVG-20010904/DTD/svg10.dtd">
<svg version="1.0" xmlns="http://www.w3.org/2000/svg"
 width="100.000000pt" height="100.000000pt" viewBox="0 0 100.000000 100.000000"
 preserveAspectRatio="xMidYMid meet">
<metadata>
Created by potrace 1.14, written by Peter Selinger 2001-2017
</metadata>
<g transform="translate(0.000000,100.000000) scale(0.100000,-0.100000)"
fill="#000000" stroke="none">
<path d="M62 584 c-38 -15 -63 -65 -55 -107 8 -38 57 -77 99 -77 47 0 95 44
96 88 2 79 -67 127 -140 96z"/>
<path d="M451 579 c-45 -27 -57 -59 -42 -109 35 -118 211 -73 186 49 -12 63
-87 95 -144 60z"/>
<path d="M853 583 c-83 -40 -69 -155 21 -177 52 -13 99 12 114 61 26 85 -56
155 -135 116z"/>
</g>
</svg>
